<svg width="800" height="600" xmlns="http://www.w3.org/2000/svg">
  <defs>
    <linearGradient id="bg" x1="0%" y1="0%" x2="100%" y2="100%">
      <stop offset="0%" stop-color="#1A365D"/>
      <stop offset="100%" stop-color="#2B6CB0"/>
    </linearGradient>
  </defs>
  <rect width="800" height="600" fill="url(#bg)"/>
  <rect x="40" y="40" width="720" height="520" fill="#EBF4FF" rx="8"/>
  <rect x="60" y="80" width="300" height="200" fill="#BEE3F8" rx="8"/>
  <rect x="380" y="80" width="360" height="96" fill="#E2E8F0" rx="8"/>
  <rect x="380" y="196" width="360" height="84" fill="#E2E8F0" rx="8"/>
  <rect x="60" y="300" width="680" height="4" fill="#CBD5E0" rx="2"/>
  <rect x="60" y="320" width="500" height="4" fill="#CBD5E0" rx="2"/>
  <rect x="60" y="360" width="200" height="160" fill="#BEE3F8" rx="8"/>
  <rect x="280" y="360" width="200" height="160" fill="#BEE3F8" rx="8"/>
  <rect x="500" y="360" width="240" height="160" fill="#BEE3F8" rx="8"/>
  <circle cx="210" cy="180" r="30" fill="#4299E1" opacity="0.3"/>
  <circle cx="380" cy="440" r="20" fill="#4299E1" opacity="0.2"/>
  <text x="400" y="560" text-anchor="middle" fill="#2B6CB0" font-family="sans-serif" font-size="14" font-weight="bold">AFTER - 施工後</text>
</svg>
